<svg width="34" height="34" fill="none" xmlns="http://www.w3.org/2000/svg"><path d="M6.75 3.457C9.53 1.326 12.99.21 16.476.027c-.127 3.15-.08 6.362-.952 9.417-.65 2.392-2.33 4.514-4.609 5.554-3.428 1.473-7.25 1.364-10.91 1.511 0-5.078 2.669-10.04 6.747-13.052zM17.513 0c3.084.257 6.174 1.063 8.76 2.813 4.61 2.947 7.628 8.237 7.714 13.702-3.386-.118-6.871-.071-10.116-1.178-2.343-.824-4.312-2.669-5.13-5.022-1.2-3.292-1.169-6.86-1.229-10.315zm6.972 18.492c3.096-.848 6.329-.874 9.514-.948-.11 4.301-1.955 8.538-5.063 11.534C25.941 32.09 21.75 33.828 17.51 34c.083-3.516.024-7.16 1.311-10.495.917-2.466 3.153-4.302 5.665-5.013zM0 17.544c3.85.136 7.96-.041 11.472 1.795 2.402 1.222 3.817 3.764 4.32 6.324.576 2.74.594 5.55.665 8.334-4.546-.174-9.004-2.176-12.062-5.545C1.711 25.488-.015 21.562 0 17.544z" fill-rule="evenodd" clip-rule="evenodd" fill="#010101"/></svg>