<svg width="34" height="34" fill="none" xmlns="http://www.w3.org/2000/svg"><g clip-path="url(#clip0_993_8410)"><path d="M11.76-.11h10.498c9.588 0 11.85 2.282 11.85 11.87v10.497c0 9.588-2.28 11.851-11.868 11.851H11.743C2.154 34.108-.11 31.828-.11 22.24V11.742c0-9.57 2.281-11.851 11.87-11.851z" fill="#5181B8"/><mask id="a" style="mask-type:luminance" maskUnits="userSpaceOnUse" x="-1" y="-1" width="36" height="36"><path d="M11.76-.11h10.498c9.588 0 11.85 2.282 11.85 11.87v10.497c0 9.588-2.28 11.851-11.868 11.851H11.743C2.154 34.108-.11 31.828-.11 22.24V11.742c0-9.57 2.281-11.851 11.87-11.851z" fill="#fff"/></mask><g mask="url(#a)"><path d="M-1-1h36v36H-1V-1z" fill="#5181B8"/></g><path fill-rule="evenodd" clip-rule="evenodd" d="M27.907 11.675c.16-.535 0-.91-.748-.91h-2.495c-.642 0-.927.34-1.088.713 0 0-1.265 3.101-3.065 5.098-.588.588-.838.766-1.158.766-.16 0-.392-.178-.392-.713v-4.955c0-.641-.179-.908-.713-.908h-3.921c-.392 0-.642.303-.642.57 0 .606.891.748.998 2.424v3.671c0 .802-.142.944-.463.944-.838 0-2.905-3.1-4.117-6.665-.25-.66-.481-.944-1.123-.944H6.485c-.713 0-.855.338-.855.713 0 .659.838 3.938 3.939 8.269 2.067 2.958 4.972 4.562 7.61 4.562 1.586 0 1.782-.356 1.782-.962v-2.246c0-.713.142-.855.659-.855.374 0 .998.178 2.477 1.604 1.693 1.693 1.978 2.46 2.923 2.46h2.495c.713 0 1.07-.357.855-1.052-.231-.695-1.033-1.711-2.103-2.923-.588-.695-1.46-1.426-1.71-1.8-.375-.481-.268-.695 0-1.105 0-.018 3.047-4.295 3.35-5.757z" fill="#fff"/></g><defs><clipPath id="clip0_993_8410"><path fill="#fff" d="M0 0h34v34H0z"/></clipPath></defs></svg>