<svg width="20" height="20" fill="none" xmlns="http://www.w3.org/2000/svg"><path fill-rule="evenodd" clip-rule="evenodd" d="M1.374 8.75c5.37-2.541 8.95-4.216 10.74-5.025 5.115-2.31 6.178-2.712 6.87-2.725.153-.003.493.038.714.233.186.164.238.386.262.541.025.156.055.51.031.787-.277 3.163-1.476 10.838-2.087 14.38-.258 1.498-.766 2-1.258 2.05-1.07.107-1.882-.767-2.918-1.505-1.62-1.154-2.536-1.872-4.11-2.998-1.818-1.301-.639-2.016.397-3.185.271-.306 4.984-4.96 5.075-5.383.011-.053.022-.25-.086-.354-.108-.104-.267-.068-.381-.04-.163.04-2.752 1.9-7.768 5.576-.735.548-1.401.816-1.997.802-.658-.016-1.923-.404-2.863-.736-1.153-.407-2.07-.622-1.99-1.314.041-.36.498-.728 1.37-1.105z" fill="#009CD9"/></svg>