<svg width="20" height="20" fill="none" xmlns="http://www.w3.org/2000/svg"><path fill-rule="evenodd" clip-rule="evenodd" d="M.003 10.002C0 4.479 4.475.002 9.995 0a9.99 9.99 0 015.293 1.512c4.685 2.92 6.118 9.086 3.2 13.774-2.918 4.687-9.082 6.12-13.767 3.201L.557 19.975a.407.407 0 01-.29-.004.417.417 0 01-.239-.539l1.555-4.036A10.003 10.003 0 01.003 10zm13.098.868c.639.334 1.659.834 1.659.834.142.07.232.215.232.374v.833a2.51 2.51 0 01-2.498 2.083c-1.309 0-3.82-1.565-4.876-2.621-1.055-1.057-2.62-3.57-2.62-4.878a2.51 2.51 0 012.082-2.5h.833c.157 0 .3.089.372.229 0 0 .503 1.02.832 1.66.371.724-.324 1.573-.72 1.974a5.01 5.01 0 001.06 1.672 5.01 5.01 0 001.672 1.062c.4-.397 1.249-1.094 1.972-.722z" fill="#0DB25A"/></svg>