<svg width="110" height="110" fill="none" xmlns="http://www.w3.org/2000/svg"><path opacity=".1" d="M11 55a44 44 0 1088 0 44 44 0 00-88 0z" fill="#1EBAF7"/><path d="M67.568 100.76v-4.55a46.596 46.596 0 007.31-4.297 10.56 10.56 0 00-.14-.647 19.755 19.755 0 00-12.1-13.45 19.794 19.794 0 00-13.902 0 19.753 19.753 0 00-12.1 13.45c-.05.22-.101.431-.14.647a46.566 46.566 0 007.31 4.298v4.549h23.762z" fill="#DBFFD8"/><path d="M67.568 100.76v-4.55a46.596 46.596 0 007.31-4.297 10.56 10.56 0 00-.14-.647 19.755 19.755 0 00-12.1-13.45 19.794 19.794 0 00-13.902 0 19.753 19.753 0 00-12.1 13.45c-.05.22-.101.431-.14.647a46.566 46.566 0 007.31 4.298v4.549" stroke="#0DB25A" stroke-width="1.977" stroke-linecap="round" stroke-linejoin="round"/><path d="M51.253 72.74h8.876v6.99h-8.876v-6.99z" fill="#fff" stroke="#0DB25A" stroke-width="1.977" stroke-linecap="round" stroke-linejoin="round"/><path d="M62.669 78.009a1.465 1.465 0 00-1.467-1.463 1.382 1.382 0 00-1.246.705c-.534 1.057-2.243 1.84-4.265 1.84s-3.73-.783-4.266-1.84a1.38 1.38 0 00-1.246-.705 1.466 1.466 0 00-1.466 1.463v.44a9.249 9.249 0 0013.96 0l-.004-.44z" fill="#DBFFD8" stroke="#0DB25A" stroke-width="1.977" stroke-linecap="round" stroke-linejoin="round"/><path d="M43.813 100.758v-4.55a57.175 57.175 0 01-6.534-3.72l-.014 8.27h6.548z" fill="#fff"/><path d="M43.813 100.758v-4.55a57.175 57.175 0 01-6.534-3.72l-.014 8.27" stroke="#0DB25A" stroke-width="1.977" stroke-linecap="round" stroke-linejoin="round"/><path d="M67.568 100.758v-4.55a57.146 57.146 0 006.533-3.72l.014 8.271-6.547-.001z" fill="#fff"/><path d="M67.568 100.758v-4.55a57.146 57.146 0 006.533-3.72l.014 8.271M55.69 81.63s-5.712.629-4.445 2.53c.462.696 1.18.55 1.903.076a12.198 12.198 0 002.542-2.605zm0 0s5.712.629 4.444 2.53c-.462.696-1.179.55-1.903.076a12.214 12.214 0 01-2.54-2.605zm1.904 10.785a40.47 40.47 0 00-1.903-10.78 40.497 40.497 0 00-1.904 10.78m-10.779-6.993l.805 10.788m-5.369-2.955l1.384-2.759m28.545-5.074l-.806 10.788m5.369-2.955l-1.384-2.759m-22.84-12.062v2.552m13.957-2.552v2.552" stroke="#0DB25A" stroke-width="1.977" stroke-linecap="round" stroke-linejoin="round"/><path d="M41.076 59.398v5.6a7.108 7.108 0 007.104 7.105h15.016a7.109 7.109 0 007.108-7.108v-5.597H41.076z" fill="#DBFFD8" stroke="#0DB25A" stroke-width="1.977" stroke-linecap="round" stroke-linejoin="round"/><path d="M68.398 59.399v-3.18a12.709 12.709 0 10-25.41 0v3.18a2.542 2.542 0 100 5.083c.053 0 .104-.012.157-.016a12.691 12.691 0 0025.104 0c.053 0 .102.016.155.016a2.542 2.542 0 100-5.083h-.005z" fill="#fff" stroke="#0DB25A" stroke-width="1.977" stroke-linecap="round" stroke-linejoin="round"/><path d="M46.795 64.797a1.588 1.588 0 103.177 0 1.588 1.588 0 00-3.177 0zm14.613 0a1.589 1.589 0 103.178 0 1.589 1.589 0 00-3.178 0z" fill="#DBFFD8"/><path d="M52.514 60.668a2.065 2.065 0 00-3.813 0m13.979 0a2.065 2.065 0 00-3.812 0m.61 7.404a5.459 5.459 0 01-7.576 0" stroke="#0DB25A" stroke-width="1.977" stroke-linecap="round" stroke-linejoin="round"/><path d="M49.759 39.14a5.083 5.083 0 1010.165 0 5.083 5.083 0 00-10.165 0z" fill="#DBFFD8" stroke="#0DB25A" stroke-width="1.977" stroke-linecap="round" stroke-linejoin="round"/><path d="M44.21 41.681a3.642 3.642 0 107.284 0 3.642 3.642 0 00-7.284 0z" fill="#DBFFD8" stroke="#0DB25A" stroke-width="1.977" stroke-linecap="round" stroke-linejoin="round"/><path d="M40.355 55.329l.085 6.606a2.542 2.542 0 012.542-2.536v-1.267a13.76 13.76 0 01.236-2.784 7.228 7.228 0 006.238-7.238c7.505 10.01 15.127 6.738 18.706 7.238.174.918.253 1.85.236 2.785v1.266a2.542 2.542 0 012.542 2.542l.085-6.607a15.336 15.336 0 00-30.67 0v-.005z" fill="#DBFFD8" stroke="#0DB25A" stroke-width="1.977" stroke-linecap="round" stroke-linejoin="round"/><path d="M59.917 27.428a18.192 18.192 0 1036.384 0 18.192 18.192 0 00-36.384 0z" fill="#fff" stroke="#0DB25A" stroke-width="1.977" stroke-linecap="round" stroke-linejoin="round"/><path d="M86.63 31.69l-4.261-4.261 4.26-4.26a3.013 3.013 0 00-4.26-4.26l-4.26 4.26-4.26-4.26a3.012 3.012 0 10-4.261 4.26l4.26 4.26-4.26 4.26a3.014 3.014 0 104.26 4.26l4.26-4.26 4.26 4.26a3.013 3.013 0 004.261-4.26z" fill="#DBFFD8" stroke="#0DB25A" stroke-width="1.977" stroke-linecap="round" stroke-linejoin="round"/><path d="M13.91 27.428a18.192 18.192 0 1036.384 0 18.192 18.192 0 00-36.384 0z" fill="#fff" stroke="#0DB25A" stroke-width="1.977" stroke-linecap="round" stroke-linejoin="round"/><path d="M29.523 36.205a3.561 3.561 0 01-2.53-1.046l-4.763-4.763a3.572 3.572 0 115.052-5.052l2.236 2.238 7.398-7.647a3.57 3.57 0 115.05 5.05l-9.922 10.174a3.554 3.554 0 01-2.521 1.046z" fill="#DBFFD8" stroke="#0DB25A" stroke-width="1.977" stroke-linecap="round" stroke-linejoin="round"/></svg>