<svg width="220" height="33" fill="none" xmlns="http://www.w3.org/2000/svg"><path d="M16 .5l5.643 8.233 9.574 2.823-6.087 7.91.275 9.978L16 26.1l-9.405 3.344.275-9.977-6.087-7.911 9.574-2.823L16 .5zm47 0l5.643 8.233 9.574 2.823-6.087 7.91.275 9.978L63 26.1l-9.405 3.344.275-9.977-6.087-7.911 9.574-2.823L63 .5zm47 0l5.643 8.233 9.574 2.823-6.087 7.91.275 9.978L110 26.1l-9.405 3.344.275-9.977-6.087-7.911 9.574-2.823L110 .5zm47 0l5.643 8.233 9.574 2.823-6.087 7.91.275 9.978L157 26.1l-9.405 3.344.275-9.977-6.087-7.911 9.574-2.823L157 .5zm47 0l5.643 8.233 9.574 2.823-6.087 7.91.275 9.978L204 26.1l-9.405 3.344.275-9.977-6.087-7.911 9.574-2.823L204 .5z" fill="#B8BFC4"/></svg>