<svg width="162" height="18" fill="none" xmlns="http://www.w3.org/2000/svg"><path d="M8.938 11.908V15.1h-1.05l-.21-2.1H2.12l-.21 2.1H.86v-3.192h.658c.252-.243.443-.55.574-.924.14-.373.257-.868.35-1.484.103-.625.257-1.74.462-3.346l.35-2.8h4.9v8.554h.784zM6.824 4.446H4.416L4.22 6.21c-.168 1.437-.308 2.487-.42 3.15-.103.663-.243 1.19-.42 1.582a2.382 2.382 0 01-.742.966h4.186V4.446zm6.837 1.008c1.036 0 1.838.345 2.408 1.036.578.69.868 1.629.868 2.814 0 .765-.131 1.442-.392 2.03a3.126 3.126 0 01-1.134 1.358c-.495.317-1.083.476-1.764.476-1.036 0-1.844-.345-2.422-1.036-.58-.69-.868-1.629-.868-2.814 0-.765.13-1.437.392-2.016.26-.588.639-1.04 1.134-1.358.494-.327 1.087-.49 1.778-.49zm0 1.036c-1.28 0-1.918.943-1.918 2.828 0 1.876.634 2.814 1.904 2.814 1.269 0 1.904-.943 1.904-2.828 0-1.876-.63-2.814-1.89-2.814zm8.623-.392c.84 0 1.508.303 2.002.91.504.607.756 1.433.756 2.478 0 1.167-.294 2.072-.882 2.716-.588.644-1.376.966-2.366.966-.989 0-1.782-.35-2.38-1.05-.588-.7-.882-1.76-.882-3.178 0-1.073.08-1.95.238-2.632.168-.69.453-1.255.854-1.694.411-.448.985-.798 1.722-1.05.551-.187.99-.355 1.316-.504a6.66 6.66 0 001.022-.574l.546.966c-.326.205-.667.397-1.022.574a9.94 9.94 0 01-1.246.49c-.466.159-.835.34-1.106.546-.27.196-.49.485-.658.868-.158.373-.266.887-.322 1.54.262-.43.598-.765 1.008-1.008a2.7 2.7 0 011.4-.364zm-.49 6.034c.57 0 1.022-.191 1.358-.574.336-.392.504-1.069.504-2.03 0-.85-.14-1.46-.42-1.834-.27-.373-.667-.56-1.19-.56-.429 0-.83.117-1.204.35-.373.224-.681.57-.924 1.036v.896c0 .868.164 1.54.49 2.016.336.467.798.7 1.386.7zm10.211-.854c0 .299.051.523.154.672.103.14.257.247.462.322l-.294.896c-.383-.047-.69-.154-.924-.322-.233-.168-.406-.43-.518-.784-.495.737-1.227 1.106-2.198 1.106-.728 0-1.302-.205-1.722-.616-.42-.41-.63-.947-.63-1.61 0-.784.28-1.386.84-1.806.57-.42 1.372-.63 2.408-.63h1.134V7.96c0-.523-.126-.896-.378-1.12-.252-.224-.64-.336-1.162-.336-.541 0-1.204.13-1.988.392l-.322-.938c.915-.336 1.764-.504 2.548-.504.868 0 1.517.215 1.946.644.43.42.644 1.022.644 1.806v3.374zm-3.024.924c.737 0 1.316-.383 1.736-1.148V9.36h-.966c-1.363 0-2.044.504-2.044 1.512 0 .439.107.77.322.994.215.224.532.336.952.336zm9.561-3.206c1.251.121 1.876.7 1.876 1.736 0 .775-.284 1.349-.854 1.722-.56.364-1.311.546-2.254.546h-2.66V5.72a12.147 12.147 0 012.422-.266c.915 0 1.638.173 2.17.518.532.345.798.84.798 1.484 0 .42-.126.76-.378 1.022-.252.261-.625.434-1.12.518zm-1.456-2.548a7.73 7.73 0 00-1.148.084v2.086h1.386c.448 0 .794-.084 1.036-.252.243-.168.364-.453.364-.854 0-.373-.135-.644-.406-.812-.27-.168-.681-.252-1.232-.252zm.224 5.544c.551 0 .98-.093 1.288-.28.308-.187.462-.523.462-1.008 0-.401-.13-.69-.392-.868-.261-.177-.704-.266-1.33-.266h-1.4v2.422h1.372zm10.51-6.37V13h-1.288V6.672H44.25l-.21 2.464c-.084.999-.191 1.745-.322 2.24-.121.495-.317.877-.588 1.148-.261.261-.663.476-1.204.644l-.322-1.022c.317-.112.541-.257.672-.434.13-.177.229-.448.294-.812.065-.364.135-.999.21-1.904l.294-3.374h4.746zm8.234 3.472c0 .215-.009.434-.028.658h-4.704c.056.812.262 1.41.616 1.792.355.383.812.574 1.372.574.355 0 .682-.051.98-.154.299-.103.612-.266.938-.49l.56.77c-.784.616-1.642.924-2.576.924-1.026 0-1.829-.336-2.408-1.008-.569-.672-.854-1.596-.854-2.772 0-.765.122-1.442.364-2.03.252-.597.607-1.064 1.064-1.4.467-.336 1.013-.504 1.638-.504.98 0 1.732.322 2.254.966.523.644.784 1.535.784 2.674zm-1.274-.378c0-.728-.144-1.283-.434-1.666-.289-.383-.723-.574-1.302-.574-1.054 0-1.628.775-1.722 2.324h3.458v-.084zM62.465 13V9.752H59.4V13h-1.288V5.622H59.4v3.094h3.066V5.622h1.288V13h-1.288zm6.717-7.546c1.036 0 1.839.345 2.408 1.036.579.69.868 1.629.868 2.814 0 .765-.13 1.442-.392 2.03a3.127 3.127 0 01-1.134 1.358c-.495.317-1.083.476-1.764.476-1.036 0-1.843-.345-2.422-1.036-.579-.69-.868-1.629-.868-2.814 0-.765.13-1.437.392-2.016.261-.588.64-1.04 1.134-1.358.495-.327 1.087-.49 1.778-.49zm0 1.036c-1.279 0-1.918.943-1.918 2.828 0 1.876.635 2.814 1.904 2.814 1.27 0 1.904-.943 1.904-2.828 0-1.876-.63-2.814-1.89-2.814zm13 2.506c1.252.121 1.877.7 1.877 1.736 0 .775-.285 1.349-.854 1.722-.56.364-1.311.546-2.254.546h-2.66V5.72a12.148 12.148 0 012.422-.266c.915 0 1.638.173 2.17.518.532.345.798.84.798 1.484 0 .42-.126.76-.378 1.022-.252.261-.625.434-1.12.518zm-1.455-2.548a7.73 7.73 0 00-1.148.084v2.086h1.386c.448 0 .793-.084 1.036-.252.243-.168.364-.453.364-.854 0-.373-.135-.644-.406-.812-.27-.168-.681-.252-1.232-.252zm.224 5.544c.55 0 .98-.093 1.288-.28.308-.187.462-.523.462-1.008 0-.401-.13-.69-.392-.868-.261-.177-.705-.266-1.33-.266h-1.4v2.422h1.372zM96.73 13H95.4V8.296c0-1.092.06-2.245.181-3.458L91.676 13h-1.708V3.354h1.33v4.704a30.1 30.1 0 01-.182 3.5l3.948-8.204h1.666V13zm4.544-7.546c.467 0 .901.08 1.302.238.411.15.737.373.98.672.252.299.378.658.378 1.078 0 .41-.121.747-.364 1.008-.233.261-.607.462-1.12.602.616.103 1.083.294 1.4.574.317.28.476.681.476 1.204 0 .765-.299 1.349-.896 1.75-.588.392-1.339.588-2.254.588-1.111 0-2.058-.308-2.842-.924l.672-.798c.327.233.653.406.98.518.336.112.719.168 1.148.168 1.204 0 1.806-.439 1.806-1.316 0-.43-.173-.728-.518-.896-.336-.177-.807-.266-1.414-.266h-.98l.084-1.008h.756c.523 0 .943-.093 1.26-.28.317-.187.476-.476.476-.868 0-.364-.135-.625-.406-.784-.271-.168-.625-.252-1.064-.252-.383 0-.723.051-1.022.154-.29.093-.583.243-.882.448l-.616-.77c.373-.28.775-.49 1.204-.63.429-.14.915-.21 1.456-.21zm8.4.644c.84 0 1.507.303 2.002.91.504.607.756 1.433.756 2.478 0 1.167-.294 2.072-.882 2.716-.588.644-1.377.966-2.366.966-.989 0-1.783-.35-2.38-1.05-.588-.7-.882-1.76-.882-3.178 0-1.073.079-1.95.238-2.632.168-.69.453-1.255.854-1.694.411-.448.985-.798 1.722-1.05.551-.187.989-.355 1.316-.504a6.66 6.66 0 001.022-.574l.546.966a12.02 12.02 0 01-1.022.574 9.933 9.933 0 01-1.246.49c-.467.159-.835.34-1.106.546-.271.196-.49.485-.658.868-.159.373-.266.887-.322 1.54a2.89 2.89 0 011.008-1.008 2.7 2.7 0 011.4-.364zm-.49 6.034c.569 0 1.022-.191 1.358-.574.336-.392.504-1.069.504-2.03 0-.85-.14-1.46-.42-1.834-.271-.373-.667-.56-1.19-.56-.429 0-.831.117-1.204.35-.373.224-.681.57-.924 1.036v.896c0 .868.163 1.54.49 2.016.336.467.798.7 1.386.7zm8.765-6.678c.943 0 1.634.336 2.072 1.008.439.672.658 1.62.658 2.842 0 1.157-.252 2.09-.756 2.8s-1.218 1.064-2.142 1.064c-.821 0-1.465-.28-1.932-.84v3.5l-1.288.154V5.622h1.106l.098.994c.271-.373.598-.658.98-.854a2.513 2.513 0 011.204-.308zm-.476 6.664c1.214 0 1.82-.938 1.82-2.814 0-1.885-.555-2.828-1.666-2.828-.364 0-.695.107-.994.322a3.18 3.18 0 00-.784.826v3.598c.187.29.42.513.7.672.28.15.588.224.924.224zm10.234-.84c0 .299.052.523.154.672.103.14.257.247.462.322l-.294.896c-.382-.047-.69-.154-.924-.322-.233-.168-.406-.43-.518-.784-.494.737-1.227 1.106-2.198 1.106-.728 0-1.302-.205-1.722-.616-.42-.41-.63-.947-.63-1.61 0-.784.28-1.386.84-1.806.57-.42 1.372-.63 2.408-.63h1.134V7.96c0-.523-.126-.896-.378-1.12-.252-.224-.639-.336-1.162-.336-.541 0-1.204.13-1.988.392l-.322-.938c.915-.336 1.764-.504 2.548-.504.868 0 1.517.215 1.946.644.43.42.644 1.022.644 1.806v3.374zm-3.024.924c.738 0 1.316-.383 1.736-1.148V9.36h-.966c-1.362 0-2.044.504-2.044 1.512 0 .439.108.77.322.994.215.224.532.336.952.336zm10.023.798V9.752h-3.066V13h-1.288V5.622h1.288v3.094h3.066V5.622h1.288V13h-1.288zm8.299 0V9.752h-3.066V13h-1.288V5.622h1.288v3.094h3.066V5.622h1.288V13h-1.288zm6.717-7.546c1.036 0 1.839.345 2.408 1.036.579.69.868 1.629.868 2.814 0 .765-.131 1.442-.392 2.03a3.122 3.122 0 01-1.134 1.358c-.495.317-1.083.476-1.764.476-1.036 0-1.843-.345-2.422-1.036-.579-.69-.868-1.629-.868-2.814 0-.765.131-1.437.392-2.016.261-.588.639-1.04 1.134-1.358.495-.327 1.087-.49 1.778-.49zm0 1.036c-1.279 0-1.918.943-1.918 2.828 0 1.876.635 2.814 1.904 2.814s1.904-.943 1.904-2.828c0-1.876-.63-2.814-1.89-2.814zm10.976 2.604c0 .215-.009.434-.028.658h-4.704c.056.812.261 1.41.616 1.792.355.383.812.574 1.372.574.355 0 .681-.051.98-.154.299-.103.611-.266.938-.49l.56.77c-.784.616-1.643.924-2.576.924-1.027 0-1.829-.336-2.408-1.008-.569-.672-.854-1.596-.854-2.772 0-.765.121-1.442.364-2.03.252-.597.607-1.064 1.064-1.4.467-.336 1.013-.504 1.638-.504.98 0 1.731.322 2.254.966.523.644.784 1.535.784 2.674zm-1.274-.378c0-.728-.145-1.283-.434-1.666-.289-.383-.723-.574-1.302-.574-1.055 0-1.629.775-1.722 2.324h3.458v-.084z" fill="#009CD9"/><path d="M1 18.5h1.006v-1H1v1zm3.019 0H6.03v-1H4.02v1zm4.025 0h2.012v-1H8.044v1zm4.025 0h2.012v-1H12.07v1zm4.025 0h2.012v-1h-2.012v1zm4.025 0h2.012v-1H20.12v1zm4.025 0h2.012v-1h-2.012v1zm4.025 0h2.012v-1H28.17v1zm4.025 0h2.012v-1h-2.012v1zm4.025 0h2.012v-1H36.22v1zm4.025 0h2.012v-1h-2.012v1zm4.025 0h2.012v-1H44.27v1zm4.025 0h2.012v-1h-2.012v1zm4.025 0h2.012v-1H52.32v1zm4.025 0h2.012v-1h-2.012v1zm4.025 0h2.012v-1H60.37v1zm4.025 0h2.012v-1h-2.012v1zm4.025 0h2.012v-1H68.42v1zm4.025 0h2.012v-1h-2.012v1zm4.025 0h2.012v-1H76.47v1zm4.025 0h2.012v-1h-2.012v1zm4.025 0h2.012v-1H84.52v1zm4.025 0h2.012v-1h-2.012v1zm4.025 0h2.012v-1H92.57v1zm4.025 0h2.012v-1h-2.012v1zm4.025 0h2.012v-1h-2.012v1zm4.025 0h2.012v-1h-2.012v1zm4.025 0h2.012v-1h-2.012v1zm4.025 0h2.012v-1h-2.012v1zm4.025 0h2.012v-1h-2.012v1zm4.025 0h2.012v-1h-2.012v1zm4.025 0h2.012v-1h-2.012v1zm4.025 0h2.012v-1h-2.012v1zm4.025 0h2.012v-1h-2.012v1zm4.025 0h2.012v-1h-2.012v1zm4.025 0h2.012v-1h-2.012v1zm4.025 0h2.012v-1h-2.012v1zm4.025 0h2.012v-1h-2.012v1zm4.025 0h2.012v-1h-2.012v1zm4.025 0h2.012v-1h-2.012v1zm4.025 0H162v-1h-1.006v1zM1 19h1.006v-2H1v2zm3.019 0H6.03v-2H4.02v2zm4.025 0h2.012v-2H8.044v2zm4.025 0h2.012v-2H12.07v2zm4.025 0h2.012v-2h-2.012v2zm4.025 0h2.012v-2H20.12v2zm4.025 0h2.012v-2h-2.012v2zm4.025 0h2.012v-2H28.17v2zm4.025 0h2.012v-2h-2.012v2zm4.025 0h2.012v-2H36.22v2zm4.025 0h2.012v-2h-2.012v2zm4.025 0h2.012v-2H44.27v2zm4.025 0h2.012v-2h-2.012v2zm4.025 0h2.012v-2H52.32v2zm4.025 0h2.012v-2h-2.012v2zm4.025 0h2.012v-2H60.37v2zm4.025 0h2.012v-2h-2.012v2zm4.025 0h2.012v-2H68.42v2zm4.025 0h2.012v-2h-2.012v2zm4.025 0h2.012v-2H76.47v2zm4.025 0h2.012v-2h-2.012v2zm4.025 0h2.012v-2H84.52v2zm4.025 0h2.012v-2h-2.012v2zm4.025 0h2.012v-2H92.57v2zm4.025 0h2.012v-2h-2.012v2zm4.025 0h2.012v-2h-2.012v2zm4.025 0h2.012v-2h-2.012v2zm4.025 0h2.012v-2h-2.012v2zm4.025 0h2.012v-2h-2.012v2zm4.025 0h2.012v-2h-2.012v2zm4.025 0h2.012v-2h-2.012v2zm4.025 0h2.012v-2h-2.012v2zm4.025 0h2.012v-2h-2.012v2zm4.025 0h2.012v-2h-2.012v2zm4.025 0h2.012v-2h-2.012v2zm4.025 0h2.012v-2h-2.012v2zm4.025 0h2.012v-2h-2.012v2zm4.025 0h2.012v-2h-2.012v2zm4.025 0h2.012v-2h-2.012v2zm4.025 0h2.012v-2h-2.012v2zm4.025 0H162v-2h-1.006v2z" fill="#009CD9" mask="url(#path-1-inside-1_65_4728)"/></svg>