<svg width="25" height="24" viewBox="0 0 25 24" fill="none" xmlns="http://www.w3.org/2000/svg">
<g id="Chat">
<g id="Group 1155">
<path id="Union" d="M3.57337 3.93686L2.71666 3.42107L2.71666 3.42107L3.57337 3.93686ZM3.57337 15.0631L2.71666 15.5789H2.71666L3.57337 15.0631ZM4.9371 16.4269L4.42131 17.2836L4.42132 17.2836L4.9371 16.4269ZM7.00024 16.9497H8.00024C8.00024 16.4244 7.59387 15.9887 7.06988 15.9521L7.00024 16.9497ZM7.00024 22H6.00024C6.00024 22.3688 6.20323 22.7077 6.52839 22.8817C6.85354 23.0557 7.24809 23.0366 7.55494 22.8321L7.00024 22ZM14.5002 17V16C14.3028 16 14.1098 16.0584 13.9455 16.1679L14.5002 17ZM21.0634 16.4269L20.5476 15.5702V15.5702L21.0634 16.4269ZM22.4271 15.0631L21.5704 14.5474V14.5474L22.4271 15.0631ZM22.4271 3.93686L21.5704 4.45264V4.45264L22.4271 3.93686ZM21.0634 2.57313L20.5476 3.42985V3.42985L21.0634 2.57313ZM4.9371 2.57313L4.42131 1.71641L4.42131 1.71641L4.9371 2.57313ZM4.00024 8.76C4.00024 7.45053 4.00127 6.53765 4.06752 5.83096C4.13241 5.13881 4.25297 4.74684 4.43009 4.45264L2.71666 3.42107C2.32065 4.07884 2.15465 4.80805 2.07625 5.64428C1.99922 6.46598 2.00024 7.48868 2.00024 8.76H4.00024ZM4.00024 10.24V8.76H2.00024V10.24H4.00024ZM4.43009 14.5474C4.25297 14.2532 4.13241 13.8612 4.06752 13.169C4.00127 12.4624 4.00024 11.5495 4.00024 10.24H2.00024C2.00024 11.5113 1.99922 12.534 2.07625 13.3557C2.15465 14.192 2.32065 14.9212 2.71666 15.5789L4.43009 14.5474ZM5.45289 15.5702C5.03364 15.3177 4.6825 14.9666 4.43009 14.5474L2.71666 15.5789C3.13734 16.2777 3.72257 16.8629 4.42131 17.2836L5.45289 15.5702ZM7.06988 15.9521C6.2271 15.8933 5.7809 15.7676 5.45289 15.5702L4.42132 17.2836C5.15102 17.7229 5.97144 17.8803 6.9306 17.9473L7.06988 15.9521ZM8.00024 22V16.9497H6.00024V22H8.00024ZM13.9455 16.1679L6.44554 21.1679L7.55494 22.8321L15.0549 17.8321L13.9455 16.1679ZM16.2402 16H14.5002V18H16.2402V16ZM20.5476 15.5702C20.2534 15.7473 19.8614 15.8678 19.1693 15.9327C18.4626 15.999 17.5497 16 16.2402 16V18C17.5116 18 18.5343 18.001 19.356 17.924C20.1922 17.8456 20.9214 17.6796 21.5792 17.2836L20.5476 15.5702ZM21.5704 14.5474C21.318 14.9666 20.9669 15.3177 20.5476 15.5702L21.5792 17.2836C22.2779 16.8629 22.8632 16.2777 23.2838 15.5789L21.5704 14.5474ZM22.0002 10.24C22.0002 11.5495 21.9992 12.4624 21.933 13.169C21.8681 13.8612 21.7475 14.2532 21.5704 14.5474L23.2838 15.5789C23.6798 14.9212 23.8458 14.192 23.9242 13.3557C24.0013 12.534 24.0002 11.5113 24.0002 10.24H22.0002ZM22.0002 8.76V10.24H24.0002V8.76H22.0002ZM21.5704 4.45264C21.7475 4.74684 21.8681 5.13881 21.933 5.83096C21.9992 6.53765 22.0002 7.45053 22.0002 8.76H24.0002C24.0002 7.48868 24.0013 6.46598 23.9242 5.64428C23.8458 4.80805 23.6798 4.07884 23.2838 3.42107L21.5704 4.45264ZM20.5476 3.42985C20.9669 3.68226 21.318 4.03339 21.5704 4.45264L23.2838 3.42107C22.8632 2.72232 22.2779 2.13709 21.5792 1.71641L20.5476 3.42985ZM16.2402 3C17.5497 3 18.4626 3.00103 19.1693 3.06728C19.8614 3.13216 20.2534 3.25273 20.5476 3.42985L21.5792 1.71641C20.9214 1.3204 20.1922 1.1544 19.356 1.07601C18.5343 0.998975 17.5116 1 16.2402 1V3ZM9.76024 3H16.2402V1H9.76024V3ZM5.45289 3.42985C5.74709 3.25273 6.13905 3.13216 6.8312 3.06728C7.53789 3.00103 8.45078 3 9.76024 3V1C8.48893 1 7.46622 0.998975 6.64453 1.07601C5.80829 1.1544 5.07908 1.3204 4.42131 1.71641L5.45289 3.42985ZM4.43009 4.45264C4.6825 4.03339 5.03364 3.68226 5.45289 3.42985L4.42131 1.71641C3.72257 2.13709 3.13734 2.72232 2.71666 3.42107L4.43009 4.45264Z" fill="#102938"/>
<g id="Group 1434">
<line id="Line 2" x1="7.00024" y1="9.51562" x2="8.00024" y2="9.51562" stroke="#102938" stroke-width="2" stroke-linecap="round" stroke-linejoin="round"/>
<path id="Line 3" d="M12.5002 9.51562H13.5002" stroke="#102938" stroke-width="2" stroke-linecap="round" stroke-linejoin="round"/>
<line id="Line 4" x1="18.0002" y1="9.51562" x2="19.0002" y2="9.51562" stroke="#102938" stroke-width="2" stroke-linecap="round" stroke-linejoin="round"/>
</g>
</g>
</g>
</svg>
