<svg width="21" height="20" viewBox="0 0 21 20" fill="none" xmlns="http://www.w3.org/2000/svg">
<path d="M8.68607 1.5L2.80629 7.59206C1.64974 8.79037 1 10.4156 1 12.1103C1 13.8049 1.64974 15.4302 2.80629 16.6285C3.96284 17.8268 5.53146 18.5 7.16707 18.5C8.80268 18.5 10.3713 17.8268 11.5278 16.6285L18.7958 9.09813C19.5668 8.29926 20 7.21576 20 6.08599C20 4.95622 19.5668 3.87272 18.7958 3.07385C18.0248 2.27498 16.979 1.82617 15.8886 1.82617C14.7982 1.82617 13.7525 2.27498 12.9814 3.07385L6.308 9.98822C6.11711 10.186 5.96569 10.4208 5.86238 10.6792C5.75907 10.9376 5.7059 11.2146 5.7059 11.4943C5.7059 11.774 5.75907 12.051 5.86238 12.3094C5.96569 12.5678 6.11711 12.8026 6.308 13.0004C6.69351 13.3998 7.21639 13.6242 7.76159 13.6242C8.30679 13.6242 8.82966 13.3998 9.21518 13.0004L14.435 7.59206" stroke="#009CD9" stroke-width="1.5" stroke-linecap="round" stroke-linejoin="round"/>
</svg>
