<svg width="28" height="25" viewBox="0 0 28 25" fill="none" xmlns="http://www.w3.org/2000/svg">
<path d="M11.6552 1.94024L4.02512 9.57034C2.52428 11.0712 1.68112 13.1067 1.68112 15.2293C1.68112 17.3518 2.52428 19.3873 4.02512 20.8882C5.52596 22.389 7.56153 23.2322 9.68403 23.2322C11.8065 23.2322 13.8421 22.389 15.3429 20.8882L24.7745 11.4566C25.775 10.4561 26.3371 9.09904 26.3371 7.68403C26.3371 6.26903 25.775 4.91199 24.7745 3.91143C23.7739 2.91087 22.4169 2.34876 21.0019 2.34876C19.5869 2.34876 18.2298 2.91087 17.2292 3.91143L8.56923 12.5714C8.32151 12.8192 8.12502 13.1132 7.99096 13.4369C7.85689 13.7605 7.78789 14.1074 7.78789 14.4578C7.78789 14.8081 7.8569 15.155 7.99096 15.4786C8.12502 15.8023 8.32152 16.0963 8.56923 16.3441C9.06951 16.8443 9.74803 17.1254 10.4555 17.1254C11.163 17.1254 11.8416 16.8443 12.3418 16.3441L19.1156 9.57034" stroke="#102938" stroke-opacity="0.5" stroke-width="2" stroke-linecap="round" stroke-linejoin="round"/>
</svg>
