<svg width="110" height="110" viewBox="0 0 110 110" fill="none" xmlns="http://www.w3.org/2000/svg">
<path opacity="0.1" d="M11 55C11 66.6695 15.6357 77.8611 23.8873 86.1127C32.1389 94.3643 43.3305 99 55 99C66.6695 99 77.8611 94.3643 86.1127 86.1127C94.3643 77.8611 99 66.6695 99 55C99 43.3305 94.3643 32.1389 86.1127 23.8873C77.8611 15.6357 66.6695 11 55 11C43.3305 11 32.1389 15.6357 23.8873 23.8873C15.6357 32.1389 11 43.3305 11 55Z" fill="#1EBAF7"/>
<path d="M67.5679 100.76V96.2106C70.1304 95.0032 72.5773 93.5647 74.8785 91.9129C74.84 91.6929 74.7894 91.4817 74.7377 91.2661C73.938 88.2224 72.4228 85.4138 70.3181 83.0741C68.2134 80.7344 65.5802 78.9315 62.6377 77.8153C58.1562 76.1345 53.2174 76.1345 48.7359 77.8153C45.7934 78.9314 43.1602 80.7343 41.0555 83.074C38.9508 85.4137 37.4355 88.2224 36.6359 91.2661C36.5853 91.4861 36.5347 91.6973 36.4951 91.9129C38.7965 93.5649 41.2439 95.0034 43.8068 96.2106V100.76H67.5679Z" fill="#DBFFD8"/>
<path d="M67.5679 100.76V96.2106C70.1304 95.0032 72.5773 93.5647 74.8785 91.9129C74.84 91.6929 74.7894 91.4817 74.7377 91.2661C73.938 88.2224 72.4228 85.4138 70.3181 83.0741C68.2134 80.7344 65.5802 78.9315 62.6377 77.8153C58.1562 76.1345 53.2174 76.1345 48.7359 77.8153C45.7934 78.9314 43.1602 80.7343 41.0555 83.074C38.9508 85.4137 37.4355 88.2224 36.6359 91.2661C36.5853 91.4861 36.5347 91.6973 36.4951 91.9129C38.7965 93.5649 41.2439 95.0034 43.8068 96.2106V100.76" stroke="#0DB25A" stroke-width="1.97719" stroke-linecap="round" stroke-linejoin="round"/>
<path d="M51.2529 72.7402H60.1288V79.7307H51.2529V72.7402Z" fill="white" stroke="#0DB25A" stroke-width="1.97719" stroke-linecap="round" stroke-linejoin="round"/>
<path d="M62.6686 78.0086C62.6684 77.8162 62.6304 77.6258 62.5566 77.4481C62.4828 77.2705 62.3748 77.1091 62.2386 76.9732C62.1024 76.8373 61.9408 76.7297 61.763 76.6563C61.5852 76.5829 61.3947 76.5453 61.2023 76.5456C60.95 76.5381 60.7004 76.5999 60.4808 76.7242C60.2611 76.8485 60.0796 77.0306 59.956 77.2507C59.4225 78.3078 57.7131 79.091 55.6913 79.091C53.6695 79.091 51.9601 78.3078 51.4255 77.2507C51.3021 77.0304 51.1206 76.8482 50.9009 76.7239C50.6812 76.5996 50.4315 76.5379 50.1792 76.5456C49.7909 76.5456 49.4184 76.6996 49.1435 76.9739C48.8686 77.2481 48.7138 77.6202 48.7129 78.0086V78.4486C49.5811 79.4473 50.6534 80.248 51.8576 80.7968C53.0618 81.3455 54.3696 81.6295 55.6929 81.6295C57.0162 81.6295 58.3241 81.3455 59.5283 80.7968C60.7324 80.248 61.8048 79.4473 62.673 78.4486L62.6686 78.0086Z" fill="#DBFFD8" stroke="#0DB25A" stroke-width="1.97719" stroke-linecap="round" stroke-linejoin="round"/>
<path d="M43.8126 100.758V96.2085C41.5553 95.1131 39.3726 93.8704 37.2786 92.4883L37.2654 100.758H43.8126Z" fill="white"/>
<path d="M43.8126 100.758V96.2085C41.5553 95.1131 39.3726 93.8704 37.2786 92.4883L37.2654 100.758" stroke="#0DB25A" stroke-width="1.97719" stroke-linecap="round" stroke-linejoin="round"/>
<path d="M67.5684 100.758V96.2085C69.8253 95.1132 72.0077 93.8704 74.1013 92.4883L74.1145 100.759L67.5684 100.758Z" fill="white"/>
<path d="M67.5684 100.758V96.2085C69.8253 95.1132 72.0077 93.8704 74.1013 92.4883L74.1145 100.759" stroke="#0DB25A" stroke-width="1.97719" stroke-linecap="round" stroke-linejoin="round"/>
<path d="M55.6901 81.6309C55.6901 81.6309 49.9778 82.259 51.245 84.1609C51.707 84.8561 52.4242 84.7109 53.148 84.2357C54.1209 83.4994 54.9778 82.6214 55.6901 81.6309Z" stroke="#0DB25A" stroke-width="1.97719" stroke-linecap="round" stroke-linejoin="round"/>
<path d="M55.6904 81.6309C55.6904 81.6309 61.4016 82.259 60.1344 84.1609C59.6724 84.8561 58.9552 84.7109 58.2314 84.2357C57.2591 83.4992 56.4026 82.6212 55.6904 81.6309Z" stroke="#0DB25A" stroke-width="1.97719" stroke-linecap="round" stroke-linejoin="round"/>
<path d="M57.5942 92.4148C57.451 88.7518 56.8108 85.1253 55.6912 81.6348C54.5715 85.1254 53.931 88.7518 53.7871 92.4148" stroke="#0DB25A" stroke-width="1.97719" stroke-linecap="round" stroke-linejoin="round"/>
<path d="M43.0078 85.4219L43.813 96.2096" stroke="#0DB25A" stroke-width="1.97719" stroke-linecap="round" stroke-linejoin="round"/>
<path d="M38.4443 93.2549L39.8281 90.4961" stroke="#0DB25A" stroke-width="1.97719" stroke-linecap="round" stroke-linejoin="round"/>
<path d="M68.3726 85.4219L67.5674 96.2096" stroke="#0DB25A" stroke-width="1.97719" stroke-linecap="round" stroke-linejoin="round"/>
<path d="M72.9356 93.2549L71.5518 90.4961" stroke="#0DB25A" stroke-width="1.97719" stroke-linecap="round" stroke-linejoin="round"/>
<path d="M48.7119 78.4336V80.9856" stroke="#0DB25A" stroke-width="1.97719" stroke-linecap="round" stroke-linejoin="round"/>
<path d="M62.6689 78.4336V80.9856" stroke="#0DB25A" stroke-width="1.97719" stroke-linecap="round" stroke-linejoin="round"/>
<path d="M41.0762 59.3984V64.9985C41.077 66.8824 41.8257 68.6889 43.1577 70.0211C44.4897 71.3533 46.2961 72.1023 48.18 72.1034H63.1961C64.1295 72.1034 65.0539 71.9196 65.9163 71.5624C66.7787 71.2051 67.5623 70.6816 68.2223 70.0215C68.8824 69.3614 69.406 68.5778 69.7632 67.7154C70.1204 66.853 70.3043 65.9287 70.3043 64.9952V59.3984H41.0762Z" fill="#DBFFD8" stroke="#0DB25A" stroke-width="1.97719" stroke-linecap="round" stroke-linejoin="round"/>
<path d="M68.3985 59.3987V56.2186C68.4371 54.5258 68.137 52.8423 67.5159 51.2671C66.8947 49.6919 65.9651 48.2567 64.7815 47.0459C63.5979 45.835 62.1842 44.8728 60.6236 44.216C59.063 43.5591 57.3868 43.2207 55.6935 43.2207C54.0003 43.2207 52.3241 43.5591 50.7635 44.216C49.2028 44.8728 47.7892 45.835 46.6056 47.0459C45.422 48.2567 44.4923 49.6919 43.8712 51.2671C43.25 52.8423 42.95 54.5258 42.9885 56.2186V59.3987C42.6503 59.3917 42.3141 59.4522 41.9996 59.5768C41.6851 59.7013 41.3986 59.8874 41.1569 60.1241C40.9152 60.3608 40.7232 60.6434 40.5922 60.9552C40.4611 61.2671 40.3936 61.602 40.3936 61.9402C40.3936 62.2785 40.4611 62.6134 40.5922 62.9253C40.7232 63.2371 40.9152 63.5197 41.1569 63.7564C41.3986 63.9931 41.6851 64.1792 41.9996 64.3037C42.3141 64.4283 42.6503 64.4888 42.9885 64.4818C43.0413 64.4818 43.0919 64.4697 43.1447 64.4664C43.593 67.4748 45.107 70.2222 47.4108 72.2082C49.7147 74.1942 52.6552 75.2866 55.6968 75.2866C58.7385 75.2866 61.679 74.1942 63.9829 72.2082C66.2867 70.2222 67.8006 67.4748 68.2489 64.4664C68.3017 64.4664 68.3512 64.4818 68.404 64.4818C68.7422 64.4888 69.0785 64.4283 69.393 64.3037C69.7075 64.1792 69.994 63.9931 70.2357 63.7564C70.4773 63.5197 70.6693 63.2371 70.8004 62.9253C70.9315 62.6134 70.999 62.2785 70.999 61.9402C70.999 61.602 70.9315 61.2671 70.8004 60.9552C70.6693 60.6434 70.4773 60.3608 70.2357 60.1241C69.994 59.8874 69.7075 59.7013 69.393 59.5768C69.0785 59.4522 68.7422 59.3917 68.404 59.3987H68.3985Z" fill="white" stroke="#0DB25A" stroke-width="1.97719" stroke-linecap="round" stroke-linejoin="round"/>
<path d="M46.7949 64.7974C46.7949 65.2187 46.9623 65.6227 47.2602 65.9206C47.558 66.2184 47.9621 66.3858 48.3833 66.3858C48.8046 66.3858 49.2086 66.2184 49.5065 65.9206C49.8044 65.6227 49.9717 65.2187 49.9717 64.7974C49.9717 64.3761 49.8044 63.9721 49.5065 63.6742C49.2086 63.3763 48.8046 63.209 48.3833 63.209C47.9621 63.209 47.558 63.3763 47.2602 63.6742C46.9623 63.9721 46.7949 64.3761 46.7949 64.7974Z" fill="#DBFFD8"/>
<path d="M61.4082 64.7974C61.4082 65.2187 61.5756 65.6227 61.8734 65.9206C62.1713 66.2184 62.5753 66.3858 62.9966 66.3858C63.4179 66.3858 63.8219 66.2184 64.1198 65.9206C64.4177 65.6227 64.585 65.2187 64.585 64.7974C64.585 64.3761 64.4177 63.9721 64.1198 63.6742C63.8219 63.3763 63.4179 63.209 62.9966 63.209C62.5753 63.209 62.1713 63.3763 61.8734 63.6742C61.5756 63.9721 61.4082 64.3761 61.4082 64.7974Z" fill="#DBFFD8"/>
<path d="M52.5138 60.6681C52.3571 60.2916 52.0925 59.9699 51.7532 59.7436C51.414 59.5173 51.0153 59.3965 50.6075 59.3965C50.1997 59.3965 49.801 59.5173 49.4617 59.7436C49.1225 59.9699 48.8578 60.2916 48.7012 60.6681" stroke="#0DB25A" stroke-width="1.97719" stroke-linecap="round" stroke-linejoin="round"/>
<path d="M62.6808 60.6681C62.5241 60.2916 62.2595 59.9699 61.9202 59.7436C61.581 59.5173 61.1823 59.3965 60.7745 59.3965C60.3667 59.3965 59.968 59.5173 59.6287 59.7436C59.2895 59.9699 59.0248 60.2916 58.8682 60.6681" stroke="#0DB25A" stroke-width="1.97719" stroke-linecap="round" stroke-linejoin="round"/>
<path d="M59.4778 68.0721C58.4604 69.0524 57.1027 69.6 55.69 69.6C54.2772 69.6 52.9195 69.0524 51.9021 68.0721" stroke="#0DB25A" stroke-width="1.97719" stroke-linecap="round" stroke-linejoin="round"/>
<path d="M49.7588 39.1397C49.7588 40.4879 50.2943 41.7808 51.2476 42.734C52.2009 43.6873 53.4938 44.2228 54.8419 44.2228C56.19 44.2228 57.4829 43.6873 58.4362 42.734C59.3894 41.7808 59.925 40.4879 59.925 39.1397C59.925 37.7916 59.3894 36.4987 58.4362 35.5454C57.4829 34.5922 56.19 34.0566 54.8419 34.0566C53.4938 34.0566 52.2009 34.5922 51.2476 35.5454C50.2943 36.4987 49.7588 37.7916 49.7588 39.1397Z" fill="#DBFFD8" stroke="#0DB25A" stroke-width="1.97719" stroke-linecap="round" stroke-linejoin="round"/>
<path d="M44.21 41.6812C44.21 42.6471 44.5937 43.5735 45.2767 44.2565C45.9597 44.9395 46.8861 45.3233 47.8521 45.3233C48.818 45.3233 49.7444 44.9395 50.4274 44.2565C51.1104 43.5735 51.4942 42.6471 51.4942 41.6812C51.4942 40.7152 51.1104 39.7888 50.4274 39.1058C49.7444 38.4228 48.818 38.0391 47.8521 38.0391C46.8861 38.0391 45.9597 38.4228 45.2767 39.1058C44.5937 39.7888 44.21 40.7152 44.21 41.6812Z" fill="#DBFFD8" stroke="#0DB25A" stroke-width="1.97719" stroke-linecap="round" stroke-linejoin="round"/>
<path d="M40.3555 55.3286L40.4402 61.9352C40.4416 61.262 40.7101 60.6168 41.1867 60.1412C41.6633 59.6657 42.309 59.3986 42.9823 59.3986V58.1325C42.9662 57.1989 43.0451 56.2661 43.2177 55.3484C44.9601 55.1076 46.5549 54.2397 47.7033 52.9072C48.8517 51.5748 49.4747 49.8693 49.4558 48.1104C56.9611 58.1204 64.583 54.8479 68.1624 55.3484C68.3361 56.2659 68.415 57.1989 68.3978 58.1325V59.3986C69.072 59.3986 69.7186 59.6665 70.1953 60.1432C70.672 60.6199 70.9399 61.2665 70.9399 61.9407L71.0246 55.3341C70.9903 51.2896 69.3596 47.4225 66.4876 44.5746C63.6155 41.7268 59.7346 40.1289 55.69 40.1289C51.6454 40.1289 47.7645 41.7268 44.8925 44.5746C42.0204 47.4225 40.3897 51.2896 40.3555 55.3341V55.3286Z" fill="#DBFFD8" stroke="#0DB25A" stroke-width="1.97719" stroke-linecap="round" stroke-linejoin="round"/>
<path d="M59.917 27.4281C59.917 32.2529 61.8336 36.88 65.2452 40.2917C68.6569 43.7033 73.284 45.6199 78.1088 45.6199C82.9336 45.6199 87.5607 43.7033 90.9723 40.2917C94.384 36.88 96.3006 32.2529 96.3006 27.4281C96.3006 22.6034 94.384 17.9762 90.9723 14.5646C87.5607 11.153 82.9336 9.23633 78.1088 9.23633C73.284 9.23633 68.6569 11.153 65.2452 14.5646C61.8336 17.9762 59.917 22.6034 59.917 27.4281Z" fill="white" stroke="#0DB25A" stroke-width="1.97719" stroke-linecap="round" stroke-linejoin="round"/>
<path d="M86.6291 31.6893L82.3688 27.429L86.6291 23.1687C87.1787 22.6006 87.4831 21.8393 87.4765 21.0489C87.47 20.2585 87.1531 19.5023 86.5942 18.9434C86.0352 18.3844 85.2791 18.0675 84.4887 18.061C83.6983 18.0545 82.9369 18.3588 82.3688 18.9084L78.1085 23.1687L73.8482 18.9084C73.5702 18.621 73.2378 18.3918 72.8703 18.2342C72.5028 18.0766 72.1076 17.9938 71.7078 17.9905C71.3079 17.9871 70.9114 18.0635 70.5414 18.215C70.1713 18.3664 69.8351 18.5901 69.5524 18.8728C69.2696 19.1556 69.046 19.4918 68.8945 19.8618C68.743 20.2319 68.6667 20.6284 68.67 21.0282C68.6733 21.428 68.7562 21.8232 68.9138 22.1907C69.0714 22.5582 69.3006 22.8907 69.5879 23.1687L73.8482 27.429L69.5879 31.6893C69.3006 31.9673 69.0714 32.2997 68.9138 32.6672C68.7562 33.0347 68.6733 33.4299 68.67 33.8298C68.6667 34.2296 68.743 34.6261 68.8945 34.9962C69.046 35.3662 69.2696 35.7024 69.5524 35.9851C69.8351 36.2679 70.1713 36.4915 70.5414 36.643C70.9114 36.7945 71.3079 36.8708 71.7078 36.8675C72.1076 36.8642 72.5028 36.7813 72.8703 36.6237C73.2378 36.4661 73.5702 36.237 73.8482 35.9496L78.1085 31.6893L82.3688 35.9496C82.9369 36.4992 83.6983 36.8035 84.4887 36.7969C85.2791 36.7904 86.0352 36.4735 86.5942 35.9146C87.1531 35.3557 87.47 34.5995 87.4765 33.8091C87.4831 33.0187 87.1787 32.2574 86.6291 31.6893Z" fill="#DBFFD8" stroke="#0DB25A" stroke-width="1.97719" stroke-linecap="round" stroke-linejoin="round"/>
<path d="M13.9104 27.4281C13.9104 32.2529 15.827 36.88 19.2387 40.2917C22.6503 43.7033 27.2774 45.6199 32.1022 45.6199C36.927 45.6199 41.5541 43.7033 44.9657 40.2917C48.3774 36.88 50.294 32.2529 50.294 27.4281C50.294 22.6034 48.3774 17.9762 44.9657 14.5646C41.5541 11.153 36.927 9.23633 32.1022 9.23633C27.2774 9.23633 22.6503 11.153 19.2387 14.5646C15.827 17.9762 13.9104 22.6034 13.9104 27.4281Z" fill="white" stroke="#0DB25A" stroke-width="1.97719" stroke-linecap="round" stroke-linejoin="round"/>
<path d="M29.5226 36.2047C29.0527 36.2059 28.5872 36.1141 28.153 35.9346C27.7187 35.755 27.3244 35.4913 26.9926 35.1586L22.2296 30.3956C21.5597 29.7256 21.1835 28.817 21.1836 27.8696C21.1837 26.9222 21.5601 26.0137 22.2301 25.3438C22.9001 24.674 23.8087 24.2978 24.7561 24.2979C25.7035 24.298 26.612 24.6744 27.2819 25.3444L29.5182 27.5818L36.9157 19.9346C37.5854 19.2649 38.4936 18.8887 39.4407 18.8887C40.3878 18.8887 41.2961 19.2649 41.9658 19.9346C42.6355 20.6043 43.0117 21.5126 43.0117 22.4596C43.0117 23.4067 42.6355 24.315 41.9658 24.9847L32.0438 35.1586C31.7132 35.4905 31.3203 35.7538 30.8876 35.9333C30.4549 36.1129 29.991 36.2051 29.5226 36.2047Z" fill="#DBFFD8" stroke="#0DB25A" stroke-width="1.97719" stroke-linecap="round" stroke-linejoin="round"/>
</svg>
