<svg width="220" height="33" viewBox="0 0 220 33" fill="none" xmlns="http://www.w3.org/2000/svg">
<path d="M16 0.5L21.6427 8.73344L31.2169 11.5557L25.1301 19.4666L25.4046 29.4443L16 26.1L6.59544 29.4443L6.86986 19.4666L0.783095 11.5557L10.3573 8.73344L16 0.5Z" fill="#B8BFC4"/>
<path d="M63 0.5L68.6427 8.73344L78.2169 11.5557L72.1301 19.4666L72.4046 29.4443L63 26.1L53.5954 29.4443L53.8699 19.4666L47.7831 11.5557L57.3573 8.73344L63 0.5Z" fill="#B8BFC4"/>
<path d="M110 0.5L115.643 8.73344L125.217 11.5557L119.13 19.4666L119.405 29.4443L110 26.1L100.595 29.4443L100.87 19.4666L94.7831 11.5557L104.357 8.73344L110 0.5Z" fill="#B8BFC4"/>
<path d="M157 0.5L162.643 8.73344L172.217 11.5557L166.13 19.4666L166.405 29.4443L157 26.1L147.595 29.4443L147.87 19.4666L141.783 11.5557L151.357 8.73344L157 0.5Z" fill="#B8BFC4"/>
<path d="M204 0.5L209.643 8.73344L219.217 11.5557L213.13 19.4666L213.405 29.4443L204 26.1L194.595 29.4443L194.87 19.4666L188.783 11.5557L198.357 8.73344L204 0.5Z" fill="#B8BFC4"/>
</svg>
