<svg width="220" height="32" viewBox="0 0 220 32" fill="none" xmlns="http://www.w3.org/2000/svg">
<path d="M16 0L21.6427 8.23344L31.2169 11.0557L25.1301 18.9666L25.4046 28.9443L16 25.6L6.59544 28.9443L6.86986 18.9666L0.783095 11.0557L10.3573 8.23344L16 0Z" fill="#FFB306"/>
<path d="M63 0L68.6427 8.23344L78.2169 11.0557L72.1301 18.9666L72.4046 28.9443L63 25.6L53.5954 28.9443L53.8699 18.9666L47.7831 11.0557L57.3573 8.23344L63 0Z" fill="#FFB306"/>
<path d="M110 0L115.643 8.23344L125.217 11.0557L119.13 18.9666L119.405 28.9443L110 25.6L100.595 28.9443L100.87 18.9666L94.7831 11.0557L104.357 8.23344L110 0Z" fill="#FFB306"/>
<path d="M157 0L162.643 8.23344L172.217 11.0557L166.13 18.9666L166.405 28.9443L157 25.6L147.595 28.9443L147.87 18.9666L141.783 11.0557L151.357 8.23344L157 0Z" fill="#FFB306"/>
<path d="M204 0L209.643 8.23344L219.217 11.0557L213.13 18.9666L213.405 28.9443L204 25.6L194.595 28.9443L194.87 18.9666L188.783 11.0557L198.357 8.23344L204 0Z" fill="#FFB306"/>
</svg>
