<svg width="153" height="79" fill="none" xmlns="http://www.w3.org/2000/svg"><path d="M152.588 18.682l-4.291 1.588-1.588 4.29-1.588-4.29-4.291-1.588 4.291-1.588 1.588-4.291 1.588 4.29 4.291 1.589z" fill="#DFBAFF"/><path d="M86.54 20.54l7.54 3.467 7.54-3.467-3.467 7.54 3.467 7.54-7.54-3.467-7.54 3.467 3.467-7.54-3.467-7.54z" fill="#BCF1FF"/><path d="M12.162 0l3.285 8.878 8.878 3.284-8.877 3.285-3.286 8.878-3.284-8.877L0 12.162l8.878-3.284L12.162 0z" fill="#E3C3FF"/><path d="M134.879 61.905l-2.62 5.699 2.62 5.698-5.698-2.62-5.699 2.62 2.621-5.698-2.621-5.699 5.699 2.62 5.698-2.62z" fill="#9AF9C6"/><path d="M63.373 63.373l-2.06 4.481 2.06 4.481-4.48-2.06-4.481 2.06 2.06-4.48-2.06-4.482 4.48 2.06 4.481-2.06z" fill="#FFC5CC"/></svg>