<svg width="21" height="20" fill="none" xmlns="http://www.w3.org/2000/svg"><path d="M8.686 1.5l-5.88 6.092A6.509 6.509 0 001 12.11c0 1.695.65 3.32 1.806 4.518A6.06 6.06 0 007.167 18.5a6.06 6.06 0 004.36-1.872l7.269-7.53A4.34 4.34 0 0020 6.086a4.34 4.34 0 00-1.204-3.012 4.04 4.04 0 00-2.907-1.248 4.04 4.04 0 00-2.908 1.248L6.308 9.988c-.19.198-.342.433-.446.691a2.197 2.197 0 000 1.63c.104.259.255.494.446.691.386.4.908.624 1.454.624A2.02 2.02 0 009.215 13l5.22-5.408" stroke="#009CD9" stroke-width="1.5" stroke-linecap="round" stroke-linejoin="round"/></svg>