<svg width="768" height="922" fill="none" xmlns="http://www.w3.org/2000/svg"><path d="M335 72l4.051 10.949L350 87l-10.949 4.051L335 102l-4.051-10.949L320 87l10.949-4.051L335 72z" fill="#FFC9AB"/><path d="M158.021 776.02l12.021 5.528 12.02-5.528-5.527 12.021 5.527 12.021-12.02-5.528-12.021 5.528 5.527-12.021-5.527-12.021z" fill="#B2F9D3"/><path d="M549 82l5.402 14.598L569 102l-14.598 5.402L549 122l-5.402-14.598L529 102l14.598-5.402L549 82z" fill="#FFABBA"/><path d="M78 146l6.752 18.248L103 171l-18.248 6.752L78 196l-6.752-18.248L53 171l18.248-6.752L78 146z" fill="#BCDFFF"/><path d="M728 622l4.051 10.949L743 637l-10.949 4.051L728 652l-4.051-10.949L713 637l10.949-4.051L728 622z" fill="#FFB4A9"/><path d="M618 749l4.051 10.949L633 764l-10.949 4.051L618 779l-4.051-10.949L603 764l10.949-4.051L618 749z" fill="#B19CE9"/><path d="M384 864l5.402 14.598L404 884l-14.598 5.402L384 904l-5.402-14.598L364 884l14.598-5.402L384 864z" fill="#FFABBA"/><path d="M718.084 217.142l-8.568 16.207 5.739 14.906-14.906-5.739-16.207 8.567 8.568-16.206-5.739-14.906 14.906 5.738 16.207-8.567z" fill="#B2F9D3"/><path d="M52 649l4.051 10.949L67 664l-10.949 4.051L52 679l-4.051-10.949L37 664l10.949-4.051L52 649z" fill="#FFC9AB"/></svg>