<svg width="1920" height="1019" fill="none" xmlns="http://www.w3.org/2000/svg"><path d="M799 72l4.051 10.949L814 87l-10.949 4.051L799 102l-4.051-10.949L784 87l10.949-4.051L799 72z" fill="#FFC9AB"/><path d="M337 266l4.051 10.949L352 281l-10.949 4.051L337 296l-4.051-10.949L322 281l10.949-4.051L337 266zM179.979 106.979L192 112.507l12.02-5.528L198.493 119l5.527 12.021-12.02-5.528-12.021 5.528L185.506 119l-5.527-12.021zm407.042 667.043l12.021 5.528 12.02-5.528-5.527 12.021 5.527 12.021-12.02-5.528-12.021 5.528 5.527-12.021-5.527-12.021z" fill="#B2F9D3"/><path d="M1578 92l4.05 10.949L1593 107l-10.95 4.051L1578 122l-4.05-10.949L1563 107l10.95-4.051L1578 92z" fill="#FFB4A9"/><path d="M1768.01 291.5l11.51 1.966 8.98-7.457-1.97 11.508 7.46 8.983-11.51-1.966-8.98 7.456 1.97-11.507-7.46-8.983z" fill="#BCF1FF"/><path d="M1305.97 150.029l-8.57 16.206 5.74 14.907-14.9-5.739-16.21 8.567 8.57-16.207-5.74-14.906 14.9 5.739 16.21-8.567z" fill="#B2F9D3"/><path d="M1013 82l5.4 14.598L1033 102l-14.6 5.402L1013 122l-5.4-14.598L993 102l14.6-5.402L1013 82z" fill="#FFABBA"/><path d="M618 151l6.752 18.248L643 176l-18.248 6.752L618 201l-6.752-18.248L593 176l18.248-6.752L618 151z" fill="#BCDFFF"/><path d="M113 469l4.592 12.408L130 486l-12.408 4.592L113 503l-4.592-12.408L96 486l12.408-4.592L113 469z" fill="#BCF1FF"/><path d="M1841 541l4.05 10.949L1856 556l-10.95 4.051L1841 571l-4.05-10.949L1826 556l10.95-4.051L1841 541z" fill="#FFB4A9"/><path d="M1326 771l4.05 10.949L1341 786l-10.95 4.051L1326 801l-4.05-10.949L1311 786l10.95-4.051L1326 771z" fill="#B19CE9"/><path d="M398 697l4.051 10.949L413 712l-10.949 4.051L398 727l-4.051-10.949L383 712l10.949-4.051L398 697z" fill="#FFC9AB"/><path d="M417.506 81.506l-9.429 20.506 9.429 20.506L397 113.089l-20.506 9.429 9.429-20.506-9.429-20.506L397 90.936l20.506-9.43z" fill="#C5B0FD"/><path d="M1484 929l4.05 10.949L1499 944l-10.95 4.051L1484 959l-4.05-10.949L1469 944l10.95-4.051L1484 929z" fill="#FFE4D5"/></svg>