<svg width="1024" height="919" fill="none" xmlns="http://www.w3.org/2000/svg"><path d="M335 72l4.051 10.949L350 87l-10.949 4.051L335 102l-4.051-10.949L320 87l10.949-4.051L335 72z" fill="#FFC9AB"/><path d="M203.021 774.022l12.021 5.528 12.02-5.528-5.527 12.021 5.527 12.021-12.02-5.528-12.021 5.528 5.527-12.021-5.527-12.021zM841.97 150.029l-8.567 16.206 5.739 14.907-14.906-5.739-16.207 8.567 8.567-16.207-5.738-14.906 14.906 5.739 16.206-8.567z" fill="#B2F9D3"/><path d="M549 82l5.402 14.598L569 102l-14.598 5.402L549 122l-5.402-14.598L529 102l14.598-5.402L549 82z" fill="#FFABBA"/><path d="M154 151l6.752 18.248L179 176l-18.248 6.752L154 201l-6.752-18.248L129 176l18.248-6.752L154 151z" fill="#BCDFFF"/><path d="M862 771l4.051 10.949L877 786l-10.949 4.051L862 801l-4.051-10.949L847 786l10.949-4.051L862 771z" fill="#B19CE9"/><path d="M968 660l4.051 10.949L983 675l-10.949 4.051L968 690l-4.051-10.949L953 675l10.949-4.051L968 660z" fill="#FFE4D5"/><path d="M55 697l4.051 10.949L70 712l-10.949 4.051L55 727l-4.051-10.949L40 712l10.949-4.051L55 697z" fill="#FFC9AB"/><path d="M512 864l5.402 14.598L532 884l-14.598 5.402L512 904l-5.402-14.598L492 884l14.598-5.402L512 864z" fill="#FFABBA"/></svg>