<svg width="320" height="657" fill="none" xmlns="http://www.w3.org/2000/svg"><path d="M34.5 40.5L31.051 48l3.449 7.5-7.5-3.449-7.5 3.449 3.449-7.5-3.449-7.5 7.5 3.449 7.5-3.449z" fill="#C5B0FD"/><path d="M260.62 537.874l-2.701 5.873 2.701 5.874-5.874-2.701-5.873 2.701 2.7-5.874-2.7-5.873 5.873 2.7 5.874-2.7z" fill="#B2F9D3"/><path d="M72 509l2.971 8.029L83 520l-8.029 2.971L72 531l-2.971-8.029L61 520l8.029-2.971L72 509zm223 114l2.431 6.569L304 632l-6.569 2.431L295 641l-2.431-6.569L286 632l6.569-2.431L295 623z" fill="#BCF1FF"/><path d="M26.125 543.625l-3.506 7.625 3.506 7.625-7.625-3.506-7.625 3.506 3.506-7.625-3.506-7.625 7.625 3.506 7.625-3.506z" fill="#C5B0FD"/><path d="M158 10l2.701 7.3L168 20l-7.299 2.7L158 30l-2.701-7.3L148 20l7.299-2.7L158 10z" fill="#BCF1FF"/></svg>