<svg width="122" height="106" fill="none" xmlns="http://www.w3.org/2000/svg"><g filter="url(#filter0_f_2_3846)"><ellipse cx="38.923" cy="46.806" rx="38.923" ry="46.806" transform="matrix(0 1 1 0 14 14.013)" fill="#ECC2F3"/></g><g filter="url(#filter1_f_2_3846)"><ellipse cx="32.349" cy="41.694" rx="32.349" ry="41.694" transform="matrix(0 1 1 0 24.064 14.22)" fill="#876EBD"/></g><path d="M28.149 32.952a.743.743 0 00-.002.056V45.06c0 .022 0 .044.003.065.13 8.365 4.745 15.896 12.078 21.326 7.337 5.433 17.412 8.778 28.517 8.778 11.106 0 21.18-3.345 28.518-8.778 7.332-5.43 11.947-12.961 12.078-21.326a.706.706 0 00.003-.065V33.008l-.002-.056c-.113-8.415-4.722-15.994-12.057-21.46-7.34-5.467-17.423-8.835-28.54-8.835-11.116 0-21.2 3.368-28.539 8.835-7.335 5.466-11.944 13.045-12.057 21.46z" fill="url(#paint0_linear_2_3846)" stroke="#102938" stroke-width=".685" stroke-linecap="round"/><g filter="url(#filter2_f_2_3846)"><ellipse cx="68.742" cy="30.753" rx="26.291" ry="38.384" transform="rotate(90 68.742 30.753)" fill="url(#paint1_linear_2_3846)"/></g><g filter="url(#filter3_f_2_3846)"><path fill-rule="evenodd" clip-rule="evenodd" d="M107.127 30.843c0 14.471-17.185 26.202-38.384 26.202-21.198 0-38.383-11.731-38.383-26.202 0-.314.008-.626.024-.936.721 13.07 17.62 23.524 38.36 23.524 20.739 0 37.637-10.454 38.359-23.524.016.31.024.622.024.936z" fill="#FFA1D4"/></g><path d="M76.16 19.524c.517-.439.71-1.138.51-1.851-.2-.713-.765-1.34-1.496-1.662L65.07 11.567c-1.175-.516-2.419-.1-2.779.93-.36 1.03.3 2.284 1.475 2.8l1.688.742c-3.597.348-7.036 1.241-9.964 2.636-3.818 1.819-6.783 4.51-7.927 7.847-1.189 3.471-.181 6.968 2.399 9.77 2.523 2.74 6.43 4.727 10.902 5.803 4.5 1.081 9.477 1.221 14.116.404 4.62-.813 8.782-2.556 11.686-5.079 2.929-2.544 4.537-5.885 3.932-9.451-.59-3.482-3.168-6.403-6.71-8.46a2.157 2.157 0 00-2.165 3.73c2.893 1.68 4.322 3.675 4.623 5.451.287 1.692-.381 3.626-2.509 5.474-2.153 1.87-5.515 3.367-9.605 4.087-4.07.717-8.45.59-12.36-.35-3.936-.946-6.97-2.611-8.737-4.53-1.71-1.858-2.078-3.74-1.491-5.45.632-1.846 2.483-3.819 5.7-5.352 3.015-1.436 6.836-2.288 10.87-2.375l-2.482 2.108c-.832.707-.773 2.017.131 2.928.905.91 2.312 1.075 3.144.37l7.153-6.076z" fill="#6A42BE"/><path d="M76.354 18.505c.517-.44.71-1.138.51-1.851-.2-.714-.765-1.341-1.495-1.662l-10.105-4.444c-1.174-.517-2.418-.1-2.778.93-.36 1.03.3 2.283 1.475 2.8l1.687.742c-3.597.348-7.036 1.241-9.964 2.636-3.817 1.819-6.783 4.51-7.926 7.847-1.19 3.471-.182 6.968 2.398 9.77 2.523 2.74 6.43 4.727 10.903 5.802 4.499 1.082 9.476 1.222 14.115.405 4.62-.813 8.782-2.556 11.686-5.079 2.93-2.544 4.537-5.886 3.933-9.452-.591-3.482-3.168-6.402-6.71-8.459a2.157 2.157 0 00-2.166 3.73c2.893 1.68 4.322 3.675 4.623 5.451.287 1.692-.38 3.626-2.508 5.474-2.153 1.87-5.516 3.367-9.605 4.087-4.07.717-8.45.59-12.36-.35-3.936-.947-6.97-2.611-8.738-4.53-1.71-1.858-2.077-3.74-1.491-5.451.632-1.845 2.483-3.818 5.701-5.351 3.014-1.436 6.836-2.288 10.87-2.375l-2.483 2.108c-.832.706-.773 2.017.132 2.927.904.91 2.311 1.076 3.143.37l7.153-6.075z" fill="#FFD900"/><defs><filter id="filter0_f_2_3846" x=".292" y=".305" width="121.029" height="105.262" filterUnits="userSpaceOnUse" color-interpolation-filters="sRGB"><feFlood flood-opacity="0" result="BackgroundImageFix"/><feBlend in="SourceGraphic" in2="BackgroundImageFix" result="shape"/><feGaussianBlur stdDeviation="6.854" result="effect1_foregroundBlur_2_3846"/></filter><filter id="filter1_f_2_3846" x="17.064" y="7.221" width="97.387" height="78.697" filterUnits="userSpaceOnUse" color-interpolation-filters="sRGB"><feFlood flood-opacity="0" result="BackgroundImageFix"/><feBlend in="SourceGraphic" in2="BackgroundImageFix" result="shape"/><feGaussianBlur stdDeviation="3.5" result="effect1_foregroundBlur_2_3846"/></filter><filter id="filter2_f_2_3846" x="28.358" y="2.463" width="80.767" height="56.581" filterUnits="userSpaceOnUse" color-interpolation-filters="sRGB"><feFlood flood-opacity="0" result="BackgroundImageFix"/><feBlend in="SourceGraphic" in2="BackgroundImageFix" result="shape"/><feGaussianBlur stdDeviation="1" result="effect1_foregroundBlur_2_3846"/></filter><filter id="filter3_f_2_3846" x="29.36" y="28.907" width="78.767" height="29.139" filterUnits="userSpaceOnUse" color-interpolation-filters="sRGB"><feFlood flood-opacity="0" result="BackgroundImageFix"/><feBlend in="SourceGraphic" in2="BackgroundImageFix" result="shape"/><feGaussianBlur stdDeviation=".5" result="effect1_foregroundBlur_2_3846"/></filter><linearGradient id="paint0_linear_2_3846" x1="115.552" y1="35.491" x2="21.905" y2="42.257" gradientUnits="userSpaceOnUse"><stop stop-color="#FF7BC2"/><stop offset="1" stop-color="#684EFF"/></linearGradient><linearGradient id="paint1_linear_2_3846" x1="5.045" y1="-29.521" x2="36.905" y2="71.936" gradientUnits="userSpaceOnUse"><stop stop-color="#FFB096"/><stop offset=".312" stop-color="#FF6BBB"/><stop offset="1" stop-color="#AC6BED"/></linearGradient></defs></svg>