<svg width="75" height="67" fill="none" xmlns="http://www.w3.org/2000/svg"><g filter="url(#filter0_f_3851_16907)"><ellipse cx="19.274" cy="23.157" rx="19.274" ry="23.157" transform="matrix(0 1 1 0 14 14.453)" fill="#CAA8FF"/></g><mask id="a" maskUnits="userSpaceOnUse" x="21" y="8" width="42" height="38" fill="#000"><path fill="#fff" d="M21 8h42v38H21z"/><path fill-rule="evenodd" clip-rule="evenodd" d="M22.168 29.678v-5.749C22.21 15.68 31.111 9 42.085 9 53.058 9 61.958 15.679 62 23.93v5.831c-.06 8.2-8.953 14.835-19.916 14.835-10.962 0-19.856-6.634-19.915-14.835v-.083z"/></mask><path fill-rule="evenodd" clip-rule="evenodd" d="M22.168 29.678v-5.749C22.21 15.68 31.111 9 42.085 9 53.058 9 61.958 15.679 62 23.93v5.831c-.06 8.2-8.953 14.835-19.916 14.835-10.962 0-19.856-6.634-19.915-14.835v-.083z" fill="url(#paint0_linear_3851_16907)"/><path d="M22.168 29.678h-1 1zm0-5.69h1-1zm0-.059l1 .033v-.028l-1-.005zm39.832 0l-1 .005v.028l1-.033zm0 5.832l-.999-.046v.039l1 .007zm-39.831 0l1-.007v-.02l-.002-.019-.998.046zm0-.013h1-1zm1-.07v-5.69h-2v5.69h2zm0-5.69v-.05h-2v.05h2zm0-.05l-.001.024-1.999-.066v.042h2zm0-.004c.018-3.743 2.045-7.204 5.458-9.763C32.04 11.61 36.794 10 42.084 10V8c-5.682 0-10.866 1.728-14.657 4.57-3.791 2.843-6.236 6.846-6.258 11.354l2 .01zM42.083 10c5.291 0 10.044 1.611 13.458 4.17 3.413 2.56 5.44 6.021 5.458 9.764l2-.01c-.023-4.508-2.467-8.51-6.258-11.354C52.95 9.728 47.767 8 42.084 8v2zM61 23.962a.61.61 0 010-.024h2v-.041l-2 .065zm0-.024v.05h2v-.05h-2zm0 .05v5.69h2v-5.69h-2zm0 5.69v.07h2v-.07h-2zm0 .07v-.033l1.998.093.002-.06h-2zm0 .006c-.028 3.716-2.055 7.155-5.468 9.698-3.412 2.543-8.162 4.144-13.449 4.144v2c5.676 0 10.855-1.716 14.644-4.54 3.79-2.825 6.24-6.803 6.272-11.287l-2-.015zM42.083 43.596c-5.286 0-10.036-1.601-13.449-4.144-3.412-2.543-5.44-5.982-5.466-9.698l-2 .014c.032 4.485 2.482 8.463 6.271 11.288 3.79 2.824 8.969 4.54 14.644 4.54v-2zm-18.917-13.88l.001.032h-2c0 .02 0 .04.002.06l1.997-.093zm.001.032v-.07h-2v.07h2z" fill="#102938" mask="url(#a)"/><ellipse cx="42.083" cy="22.743" rx="13.018" ry="18.99" transform="rotate(90 42.083 22.743)" fill="url(#paint1_linear_3851_16907)"/><path fill-rule="evenodd" clip-rule="evenodd" d="M61.073 22.787c0 7.166-8.502 12.974-18.99 12.974-10.488 0-18.99-5.809-18.99-12.974 0-.155.004-.31.012-.464.357 6.472 8.717 11.649 18.978 11.649 10.26 0 18.62-5.177 18.978-11.649.008.154.012.308.012.464z" fill="#F395AC"/><path d="M51.93 20.942a.685.685 0 01-.045 1.238l-4.942 2.127a.686.686 0 00-.328.298l-1.878 3.393a.685.685 0 01-.919.274l-3.859-2.034a.686.686 0 00-.38-.077l-6.452.572a.685.685 0 01-.674-.988l2.08-4.177a.685.685 0 00-.003-.615l-1.75-3.454a.685.685 0 01.624-.995l5.885.108a.685.685 0 00.355-.091l4.88-2.81a.685.685 0 01.98.341l1.675 4.233c.06.153.174.28.32.356l4.43 2.301z" fill="#6A42BE"/><path d="M51.32 21.69a.685.685 0 010 1.232l-4.278 2.083a.686.686 0 00-.346.388l-1.397 3.96a.685.685 0 01-1.004.357l-4.455-2.73a.686.686 0 00-.386-.1l-5.51.226a.685.685 0 01-.638-.998l1.79-3.49a.685.685 0 000-.626l-1.79-3.49a.685.685 0 01.639-.998l5.509.226c.136.005.27-.03.386-.1l4.455-2.73a.685.685 0 011.004.357l1.397 3.96c.06.17.184.31.346.389l4.278 2.082z" fill="#FFD900"/><defs><linearGradient id="paint0_linear_3851_16907" x1="65.242" y1="25.088" x2="18.91" y2="28.433" gradientUnits="userSpaceOnUse"><stop stop-color="#F58D9F"/><stop offset="1" stop-color="#6953EC"/></linearGradient><linearGradient id="paint1_linear_3851_16907" x1="30.354" y1="10.703" x2="54.589" y2="42.147" gradientUnits="userSpaceOnUse"><stop stop-color="#FF9198"/><stop offset="1" stop-color="#904BD8"/></linearGradient><filter id="filter0_f_3851_16907" x=".292" y=".745" width="73.729" height="65.963" filterUnits="userSpaceOnUse" color-interpolation-filters="sRGB"><feFlood flood-opacity="0" result="BackgroundImageFix"/><feBlend in="SourceGraphic" in2="BackgroundImageFix" result="shape"/><feGaussianBlur stdDeviation="6.854" result="effect1_foregroundBlur_3851_16907"/></filter></defs></svg>